<?xml version="1.0" encoding="utf-8"?>
<svg width="301" height="301" viewBox="0 0 301 301" fill="none" xmlns="http://www.w3.org/2000/svg">
  <path d="M301 150.5C301 164.846 299.051 178.758 295.153 192.236L273.414 179.685C275.659 170.212 276.782 160.483 276.782 150.5C276.782 133.367 273.475 116.983 266.863 101.349C260.473 86.2425 251.45 72.8612 239.795 61.2054C228.139 49.5496 214.757 40.5269 199.651 34.1372C187.846 29.1444 175.615 26.0364 162.955 24.8135L162.955 73.6335C158.878 72.9813 154.726 72.6552 150.5 72.6552C139.936 72.6552 129.837 74.6926 120.203 78.7676C110.891 82.7062 102.642 88.2687 95.4554 95.4554C88.2687 102.642 82.7062 110.891 78.7676 120.203C74.6926 129.837 72.6552 139.936 72.6552 150.5C72.6552 151.63 72.6785 152.755 72.7251 153.874L49.7705 167.127C48.8813 161.684 48.4368 156.141 48.4368 150.5C48.4368 136.662 51.112 123.419 56.4624 110.769C61.6277 98.5565 68.917 87.7437 78.3304 78.3304C87.7438 68.9171 98.5566 61.6277 110.769 56.4624C119.789 52.647 129.112 50.1919 138.737 49.0973L138.737 0.444214C142.625 0.148071 146.546 0 150.5 0C170.907 0 190.436 3.94403 209.085 11.832C227.092 19.4483 243.037 30.1978 256.92 44.0804C270.802 57.963 281.552 73.9077 289.168 91.9149C297.056 110.564 301 130.093 301 150.5L301 150.5ZM114.518 4.30798C106.846 6.19568 99.3111 8.70367 91.9149 11.832C73.9078 19.4484 57.963 30.1978 44.0804 44.0804C30.1978 57.963 19.4483 73.9078 11.832 91.9149C3.94403 110.564 0 130.093 0 150.5C0 170.907 3.94403 190.436 11.832 209.085C15.9216 218.754 20.9147 227.829 26.811 236.308L28.0232 235.609L28.0241 235.61L68.9896 211.959C71.8279 215.711 74.9415 219.281 78.3304 222.67C87.7437 232.083 98.5565 239.372 110.769 244.538C123.419 249.888 136.662 252.563 150.5 252.563C164.338 252.563 177.581 249.888 190.231 244.538C199.199 240.745 207.412 235.806 214.871 229.723L191.894 216.457C188.38 218.664 184.681 220.59 180.797 222.232C171.163 226.307 161.064 228.345 150.5 228.345C139.936 228.345 129.837 226.307 120.203 222.232C110.891 218.294 102.642 212.731 95.4554 205.545C88.2687 198.358 82.7061 190.109 78.7676 180.797C78.4893 180.139 78.2205 179.479 77.9611 178.816L74.8229 180.628L74.822 180.626L35.7061 203.21C35.1667 202.035 34.6438 200.848 34.1372 199.651C27.5247 184.017 24.2183 167.633 24.2184 150.5C24.2183 133.367 27.5247 116.983 34.1372 101.349C40.5269 86.2426 49.5496 72.8613 61.2054 61.2054C72.8613 49.5496 86.2426 40.5268 101.349 34.1373C105.681 32.3049 110.071 30.7264 114.518 29.4018L114.518 4.30798L114.518 4.30798ZM244.538 190.231C244.455 190.427 244.373 190.619 244.292 190.808L284.739 214.16L284.727 214.181L286.438 215.169C279.057 230.705 269.218 244.621 256.92 256.92C243.037 270.802 227.092 281.552 209.085 289.168C190.436 297.056 170.907 301 150.5 301C130.093 301 110.564 297.056 91.9149 289.168C73.908 281.552 57.9631 270.802 44.0804 256.92C43.5278 256.367 42.9802 255.811 42.4374 255.252L64.1945 242.69C75.1331 252.955 87.518 261.013 101.349 266.863C116.983 273.475 133.367 276.782 150.5 276.782C167.633 276.782 184.017 273.475 199.651 266.863C214.757 260.473 228.139 251.45 239.795 239.795C244.762 234.827 249.251 229.546 253.262 223.952L212.441 200.383L212.453 200.362L210.99 199.517C215.605 193.845 219.353 187.605 222.232 180.797C226.307 171.163 228.345 161.064 228.345 150.5C228.345 139.936 226.307 129.837 222.232 120.203C218.294 110.891 212.731 102.642 205.545 95.4554C200.043 89.9543 193.92 85.4048 187.174 81.8069L187.174 55.2256C188.197 55.6207 189.216 56.0329 190.231 56.4624C202.443 61.6277 213.256 68.9171 222.67 78.3304C232.083 87.7438 239.372 98.5565 244.538 110.769C249.888 123.419 252.563 136.662 252.563 150.5C252.563 164.338 249.888 177.581 244.538 190.231L244.538 190.231Z" fill="#FFFFFF" fill-rule="evenodd" />
</svg>